<?xml version="1.0" encoding="UTF-8"?>
<svg id="Layer_1" data-name="Layer 1" xmlns="http://www.w3.org/2000/svg" viewBox="0 0 431.74 402.42">
  <defs>
    <style>
      .cls-1, .cls-2 {
        fill: none;
      }

      .cls-2 {
        stroke: #231f20;
      }

      .cls-2, .cls-3 {
        stroke-miterlimit: 10;
      }

      .cls-4 {
        fill: #936a4e;
      }

      .cls-5 {
        fill: #b8652a;
      }

      .cls-6 {
        fill: #5b391f;
      }

      .cls-7 {
        fill: #68482e;
      }

      .cls-8 {
        fill: #774c2c;
      }

      .cls-9 {
        fill: #b25f7d;
      }

      .cls-10 {
        fill: #fff;
      }

      .cls-11 {
        fill: #8a2945;
      }

      .cls-12 {
        fill: #bc788d;
      }

      .cls-13 {
        fill: #52422e;
      }

      .cls-14 {
        fill: #6b5234;
      }

      .cls-3 {
        fill: #bb2430;
        stroke: #e5ae56;
        stroke-width: 9px;
      }

      .cls-15 {
        fill: #66452c;
      }

      .cls-16 {
        fill: #7f6045;
      }
    </style>
  </defs>
  <polygon class="cls-3" points="7.83 397.92 424.52 397.92 234.21 9.53 7.83 397.92"/>
  <path class="cls-10" d="M194.64,332.6c-.21-.99-.46-2.05-1.57-2.36-.09-.03-.18-.04-.28-.05-.1-.07-.22-.13-.35-.17-.47-.15-1-.22-1.53-.25.38-.42.34-1.21-.2-1.58-3.02-2.05-5.97-4.21-8.81-6.51-1.43-1.15-2.79-2.38-4.21-3.54-1.1-.9-2.33-1.11-3.73-.96-3.13.35-6.05,2.31-8.57,4.07-1.32.92-2.6,1.91-3.82,2.96-1.23,1.07-2.51,2.16-3.25,3.64-.41.81.34,1.54,1.01,1.5.09.18.22.35.39.47,6.3,4.32,12.56,8.61,19.34,12.14.25.13.51.15.74.08.62.44,1.23.91,1.81,1.42.3.26.64.29.94.2,0,.08,0,.16,0,.24-.03.77.67,1.07,1.25.92.16.15.38.25.67.23,1.21-.09,2.24.37,3.42.45,1,.06,1.95-.32,2.8-.83.93-.56,1.81-1.2,2.3-2.2.52-1.05.94-2.17,1.4-3.25.43-1.02.84-2.05.8-3.18-.05-1.15-.31-2.32-.54-3.44Z"/>
  <path class="cls-10" d="M227.86,227.16c-.97-1.4-1.85-2.22-3.4-2.91-1.67-.75-3.21-1.76-4.89-2.49-3.46-1.5-6.66-.84-9.72,1.24-1.61,1.09-2.6,2.57-3.68,4.15-1.08,1.59-2.25,3.16-2.72,5.05-.74.32-.85,1.5.11,1.86,1.71.65,3.39,1.38,5.04,2.17.54.56,1.17,1.04,1.88,1.41.02.01.04,0,.06.02.07.19.2.36.46.48,1.45.65,2.88,1.35,4.35,1.95,1.38.57,2.35.05,3.75.05,1.23,0,2.27.15,3.36-.56,1.02-.67,1.67-1.76,2.73-2.36,0,0,0,0,0,0,.07-.05.14-.09.21-.15.39-.3.39-.73.2-1.07.66-.26,1.31-.53,1.95-.84,1.45-.7,2.49-1.68,2.44-3.38-.04-1.67-1.2-3.28-2.12-4.61Z"/>
  <path class="cls-13" d="M273.38,224.44c-3.64-5.18-10.07-2.29-12.28,2.44-.08.17-.14.36-.22.53-.6-.03-1.21.05-1.81.21-2.66-1.42-6.26-.88-6.89,2.89-.31,1.87-1.25,5.3-1.85,8.93-2.86-2.2-8.23-.94-8.25,3.78-.01,3.68-1.17,9.51,1.25,12.6,2.26,2.88,6.33,2.66,8.92.39.98-.86,1.9-1.87,2.77-2.97,1.47,1.85,3.69,2.62,6,2.36,1.3,2.22,3.87,3.11,6.69,1.83,5.16-2.36,6.07-9.89,6.78-14.82.73-5.1,2.07-13.62-1.12-18.15Z"/>
  <path class="cls-14" d="M264.56,246.73c1.61-5.22,2.86-11.15,1.12-15.71-1.18-3.08-4.28-4.61-7.34-2.99-.78.41-1.41.91-1.93,1.46-1.19-1.61-3.26-2.55-5.31-1.88-6.58,2.17-7.26,11.18-7.84,17.15-.57,5.91,0,16.24,6.52,18.87,3.81,1.54,6.78-.43,8.98-3.38.41.04.83.05,1.27.02,4.33-.34,6.59-3.86,7.72-7.67.88-2.98-.9-5.13-3.19-5.88Z"/>
  <path class="cls-11" d="M123.03,288.71c-6.43,0-6.45,10,0,10s6.45-10,0-10Z"/>
  <path class="cls-14" d="M190.37,266.65c-5.55.83-10.46,4.53-15.41,6.97-5.71,2.82-11.59,5.22-17.6,7.32-1.81.63-2.84,1.95-3.24,3.42-.02,0-.03.02-.05.03-9,5.8-19.02,9.93-26.64,17.68-4.52,4.59,2.55,11.67,7.07,7.07,6.97-7.09,16.37-10.8,24.62-16.12,1.2-.77,1.88-1.8,2.16-2.9,5.27-1.88,10.45-3.97,15.53-6.34,5.16-2.4,10.55-6.64,16.22-7.49,6.34-.95,3.65-10.59-2.66-9.64Z"/>
  <path class="cls-7" d="M162.43,331.52c-.31-.28-.65-.41-1.06-.44-.18-.01-.35-.01-.53-.01-.01-.03-.02-.05-.03-.08-.22-.35-.52-.6-.86-.83-.39-.26-.83-.4-1.29-.48-.08-.21-.18-.42-.29-.62-.86-1.6-2.72-2.91-4.34-3.66-.41-.19-.85-.33-1.29-.44-.4-.55-.91-1.03-1.51-1.38-.15-.58-.61-1.06-1.39-1.06-.48,0-.83.18-1.07.46-.37.01-.75.05-1.14.14-3.04.73-5.97,1.79-8.77,3.17-.86.42-1.65.83-2.44,1.21-2.32.42-4.62.87-6.48,2.3-.4.19-.79.39-1.19.61-2.6,1.49-4.49,2.52-7.48,2.93-1.25.17-2.5.31-3.75.45-.55-.19-1.17-.29-1.88-.26-3.45.15-6.48-.34-9.86-.68-.57-.06-1.17-.03-1.78.02-1.39-.54-2.76-1.13-4.12-1.75,0,0,0,0,0,0-.44-.81-.89-1.63-1.32-2.44-.16-.3-.32-.6-.48-.9,0-.01,0-.02,0-.03-.15-1.57-1.22-2.81-1.21-4.33,0-.72-.18-1.41-.5-2.04.13-1.79,1.16-3.55,1.86-5.17.72-1.66,1.37-3.19,2.79-4.38.87-.72.38-2.26-.66-2.51-1.19-.28-2.27-.79-3.19-1.6-.61-.53-1.52-.6-2.12,0-.47.47-.58,1.3-.22,1.86-.08.06-.17.11-.23.2-2.35,2.92-4.45,6.02-6.23,9.31-.16.29-.19.62-.15.95-1.27,1.6-2.01,3.16-2.28,5.21-.14,1.08-.2,2.16-.31,3.24-.24.59-.38,1.27-.36,2.04.03.34.01.69-.05,1.02-.1.88.15,1.72.61,2.46-.24.62-.33,1.35-.24,2.2.77,7.09,3.07,14.04,8.82,18.62,3.1,2.47,6.62,4.22,10.34,5.3.79,1.07,2.08,1.77,3.86,1.68.89-.04,1.77-.09,2.66-.13.81.52,1.77.83,2.66.76.9-.06,1.74-.24,2.56-.47.54.18,1.15.27,1.83.24,1.82-.08,3.37-.42,4.84-.89.64.06,1.34-.03,2.1-.29,1.83-.63,3.47-1.38,5.04-2.42.32-.13.63-.27.94-.41,0,0,0,0,0,.01.02-.02.04-.03.06-.04,2.05-.95,3.83-2.1,5.4-3.87,1.06-1.19,1.96-2.79,3-4.19.74-.22,1.44-.65,2.04-1.36.44-.52.84-1.04,1.24-1.58.25-.09.51-.18.76-.3,2.13-1.04,4.08-2.6,5.2-4.74.04-.06.07-.1.09-.14.06-.07.12-.14.18-.21.22-.25.45-.5.67-.75,1.65-.88,3.14-1.99,4.6-3.17,1.03-.84,2.2-1.73,3.11-2.77.1,0,.2-.01.3-.04.43-.06.85-.24,1.21-.48.24-.16.47-.35.69-.55.53,0,1.07-.04,1.59,0,.37.03.81-.19,1.06-.44s.46-.69.44-1.06c-.02-.39-.14-.79-.44-1.06Z"/>
  <path class="cls-7" d="M298.24,232.94c.64-1.61.43-3.54-1.07-5.17-1.81-1.97-3.12-4.83-4.67-7.06-2.05-2.95-3.78-6.11-5.12-9.44,0,0,0,0,0,0-.15-.38-.31-.77-.5-1.2-.28-.63-.67-1.12-1.12-1.5-.03-.06-.05-.13-.08-.19-.21-.51-.47-.95-.78-1.33-.11-.32-.23-.63-.34-.95-.08-.48-.22-.98-.44-1.52-.52-1.27-1.34-2.16-2.3-2.72-.12-.2-.25-.39-.37-.58-.23-1.53-1.09-2.95-2.57-3.66.03-.06.06-.11.09-.17.31-.25.6-.52.84-.83.57-.75,1.02-1.51,1.39-2.31.66-.39,1.28-.98,1.79-1.8.49-.78.86-1.55,1.13-2.34.45-.93.89-1.86,1.34-2.79.74-.58,1.33-1.46,1.63-2.66.06-.26.13-.5.2-.75.39-.45.73-1,.97-1.64.27-.59.46-1.2.63-1.82,1.94-5.8,3.31-11.86,1.86-17.91-.98-4.1-5.46-4.36-8.01-2.3-.19-.02-.38-.03-.58-.03-.56,0-1.06.08-1.52.22-1.42.03-2.51.56-3.29,1.35-1.23.18-2.17.76-2.83,1.56-.09,0-.19.02-.27.06-.44.17-.86.36-1.29.56-1.13.22-2.01.78-2.63,1.54-2.58,1.2-4.83,2.82-6.65,5.11-2.26,2.84-3.26,6.29-5.58,9.1-1.61,1.43-2.69,3.07-3.99,4.96-1.63,2.36-3.81,4.24-5.92,6.17-2.6,2.37-5.09,4.92-8.05,6.82-1.61,1.03-3.19,2.25-4.9,3.05-.58.09-1.17.29-1.77.64-.07.02-.15.04-.22.06-.45.07-.9.13-1.34.2-1.19.06-2.16.41-2.91.96-.4.02-.82.09-1.26.23-2.61.79-4.83.89-7.28.35.57-.74,1.05-1.55,1.53-2.33.9-1.46,1.8-2.91,2.71-4.37.4-.64.24-1.26-.15-1.68.45-.58.63-1.35,1.15-1.86,1.38-1.35-.74-3.47-2.12-2.12-.55.54-.79,1.14-1.17,1.78-.38.65-.99.85-1.66,1.18-1.71.85-3.42,1.69-5.13,2.54-1.59.79-3.18,1.64-4.84,2.28-1.77.68-3.61,1.14-5.44,1.6-.25.06-.44.17-.6.31-1.1.06-2.2.06-3.31,0-.03,0-.06,0-.09,0-.5-.9-1.03-1.8-1.58-2.69-1.04-1.7-1.98-3.3-2.49-5.16-.39-1.4-2.53-1.45-2.89,0-.28,1.11-.69,1.89-1.15,2.94-.36.82-.66,1.62-.86,2.46-1.59-2.24-3.17-4.54-3.86-7.23-.06-.22-.14-.39-.25-.54-.03-.64,0-1.27.12-1.91.14-.69-.16-1.23-.61-1.55.25-.03.41-.24.43-.49.12-1.24,0-2.48-.21-3.71.12-.08.22-.2.23-.39l.11-1.66s0-.04-.01-.07c.15-.07.29-.16.41-.28.26-.29.46-.66.44-1.06-.03-.77,0-1.55.05-2.32.25-.29.39-.67.38-1.08.13-.16.24-.34.32-.54.38-.94.69-1.68,1.12-2.62.42-.93.86-1.85,1.33-2.76.08-.15.13-.31.16-.47.59-.8,1.18-1.6,1.77-2.4.97-1.31,2.02-2.6,2.96-3.95.4.01.8-.12,1.05-.43.46-.57.88-1.16,1.24-1.8,0,0,0-.01,0-.01,1.64-1.08,3.28-2.17,4.94-3.22.32-.2.52-.47.62-.75.49-.13.98-.27,1.46-.4.84-.23,1.5-1.42.9-2.2-.48-.62-1-1.1-1.72-1.44-.67-.31-1.35-.53-1.95-.98-.42-.31-.82-.62-1.23-.92-.42-.9-1.21-1.48-2.01-2.02-.92-.62-1.87-1.2-2.85-1.74-.45-.25-.88-.25-1.24-.11-.48-.43-1.18-.58-1.77-.13-1.25.35-2.03,1.93-2.52,3.26-1.13.46-1.76,2.08-2.17,3.1-.57,1.43-.87,2.96-1.15,4.47-.04.24-.02.46.03.67-.78.85-1.18,1.96-1.05,3.12-1.46,1.08-1.27,3.17-.63,4.91-.25.26-.41.61-.42,1.02-.02.81-.03,1.63-.05,2.44-.24.18-.25.57-.03.77-.39,1.38-.62,2.81-.78,4.23-.04.37.13.73.41,1.01,0,.05-.02.11-.02.16-.12,1.04-.16,2.1-.12,3.15.02.39.15.76.43,1.04-.05.1-.07.22-.05.33.43,1.9.85,3.83.66,5.79,0,.09.02.17.06.24-.7-.22-1.51.02-1.75.89-.26,0-.52.06-.76.22-2.22,1.55-4.3,3.27-6.27,5.13-.47.44-.92.87-1.51,1.14-.5.23-1.03.38-1.53.61-.58.26-1.11.66-1.52,1.14-.14-.03-.29-.05-.45-.04-.89,0-1.52.54-1.97,1.28-.33.08-.64.29-.86.67-.35.6-.74,1.17-1.16,1.71-.74.12-1.13.72-1.17,1.35-.13.14-.26.28-.41.42-.98.94-2.23,1.59-2.92,2.76-.65.28-1.3.55-1.96.83-.21.09-.37.23-.48.4-.43.1-.83.21-1.15.29-1.95.47-3.84,1.03-5.86.88-.47-.04-.83.12-1.06.37-1.55-.26-3.21.15-4.29,1.36-.64.71-1.23,1.44-1.8,2.18-1.27.85-1.96,1.98-2.18,3.16-.02.03-.04.06-.05.09-.34.4-.61.85-.78,1.35-.78,1.4-1.46,2.87-2.08,4.4-.41.31-.79.68-1.13,1.15-.39.53-.77,1.06-1.15,1.58-1.51.66-2.41,2.04-2.69,3.56-1.06,1.34-2.17,2.64-3.4,3.84-.99.96-1.98,1.89-2.93,2.84-.28.17-.55.37-.82.61-1.07.94-1.97,1.99-2.74,3.16-.74.85-1.48,1.7-2.21,2.55-2.28,1.21-3.93,2.79-5.93,4.51-1.83,1.57-4.06,2.43-6.08,3.72-1.45.92-2.57,1.95-3.7,3.1-.28.12-.55.25-.83.43-4.14,2.62-8.89,4.99-12.56,8.27-2.68,2.39-4.53,5.74-6.21,9.05-1.18.73-1.89,1.97-2.12,3.3-.79.58-1.4,1.49-1.65,2.79-1.52,7.77-4.39,16.43-4.05,24.38.11,2.54,1.86,4.5,4.29,4.91.61.61,1.37,1.1,2.23,1.44,2.92,1.14,5.84,2.29,8.76,3.43.72.75,1.73,1.27,3.03,1.36.15.09.29.19.47.27,5.59,2.63,12.27,5.16,19.1,6.59.27.14.56.27.88.37,2.05.66,4.42.81,6.87.73,4.34.3,8.61,0,12.54-1.17.66-.2,1.23-.51,1.7-.9,7.38-1.71,12.68-7.53,19.84-9.85,7.19-2.33,16.72-3.17,21.76,3.6-1.29.27-2.48,1.1-3.26,2.21-.92.43-1.77,1-2.53,1.7-.1.09-.16.2-.25.29-.34-.05-.68,0-.99.17-.14.08-.27.17-.37.28-.07.08-.19.23-.25.32-.01.02-.02.03-.03.05-.06.11-.12.26-.16.38,0,.02-.01.04-.02.06-.04.15-.06.38-.07.49,0,.07-.01.14-.02.21-.04.05-.08.1-.11.15-.14.23-.2.49-.2.76-.04.3,0,.61.1.9l.15.36c.09.17.22.32.39.42.09.09.2.16.33.19.11.06.22.09.34.11.04.11.09.22.14.32.2.62.55,1.16,1.03,1.61.95.87,2.2,1.52,3.54,1.46.08-.01.17-.02.25-.03.1.12.19.24.31.35.43.41.86.82,1.28,1.23.64.85,1.56,1.49,2.58,1.82.22.44.64.76,1.28.76.57,0,.97-.27,1.2-.64.1-.02.21-.04.31-.07,2.02-.64,3.79-2.12,5.33-3.66,1.74-.83,3.22-2.09,4.54-3.56,1.36-.76,2.74-1.49,3.94-2.31,2.51-1.71,5.38-2.61,8.24-3.56,1.02.19,2.15.03,3.31-.66.02-.01.05-.03.07-.04.8-.12,1.53-.45,2.11-1.02,2.64-1.07,5.5-1.57,8.25-2.35,3.25-.92,6.41-1.94,9.54-3.19-.03.66.08,1.35.36,2.06-.02.83.18,1.73.68,2.67,1.22,2.32,1.48,4.6,2.82,6.66.07.54.23,1.11.5,1.67.36.76.57,1.57.63,2.41.25,1.46,1.04,2.43,2.07,2.98-.03.32-.03.64,0,.95.02.22.04.47.1.69.08.31.24.57.47.8.41.42,1.01.52,1.56.4.34-.08.59-.28.85-.5.79-.64,1.56-1.29,2.34-1.94.24-.2.39-.58.42-.9.51-.35.97-.78,1.32-1.29,3.68-5.42,8.26-8.17,13.71-11.31.98.16,2.05.02,3.15-.57,3.19-1.7,6.84-2.66,9.97-4.44.21.02.43.03.65.03,4.2-.07,8.83-2.61,12.74-4.56.77-.05,1.53-.15,2.29-.28.61-.1,1.29-.21,1.88-.45.58.51,1.54.59,2.09-.02.53-.58.62-1.55,0-2.12-.23-.21-.45-.43-.66-.65-.1-.11-.2-.22-.29-.33-.05-.06-.09-.11-.14-.17-.06-.12-.17-.23-.24-.34-.08-.12-.16-.24-.24-.37-.17-.27-.33-.56-.48-.85-.1-.2-.26-.34-.44-.46-.3-1.36-1.09-2.62-2.3-3.31-.01,0-.02-.02-.04-.02-.13-1.33-.72-2.6-1.77-3.44-.29-1.09-.91-2.09-1.88-2.74-.07-.13-.12-.27-.21-.39-.11-1.08-.51-2.13-1.23-2.93-.14-1.18-.64-2.31-1.52-3.12-.1-.7-.32-1.39-.68-1.99-.04-.19-.08-.39-.13-.58.94-1.21,1.26-2.88.96-4.4-.02-.34-.05-.67-.13-1,.19-.84.19-1.73,0-2.57.39-.69.63-1.48.69-2.29.25-.63.39-1.31.4-2,.57-.96.83-2.1.73-3.22,1.05-.9,1.62-2.23,1.7-3.6,1.23-.6,2.04-1.68,2.4-2.92,1.11-.49,1.88-1.38,2.33-2.42.59-.75.94-1.68,1.05-2.64.22-.36.42-.72.59-1.11.27-.52.44-1.03.53-1.53.77-1.12,1.71-2.2,2.25-3.29.94-1.86,1.61-3.82,2.16-5.82.39-1.42.1-2.74-.57-3.82ZM223.66,238.53c-1.24.14-2.27.36-3.43.93-.74.36-1.21.7-2.03.85-.61.11-1.21.14-1.82.18,0,0-.01,0-.02,0-.55-.34-1.14-.54-1.77-.59-.24-.04-.48-.05-.72-.06-.27-.12-.54-.24-.8-.36-.69-.77-1.66-1.32-2.92-1.46-.41-.26-.87-.47-1.4-.59-.39-.26-.81-.49-1.29-.65-.14-.04-.27-.09-.41-.14-.32-.17-.65-.33-.96-.52-.11-.07-.23-.15-.34-.22-.2-.2-.78-.7-.84-.76-.71-.72-1.66-1.16-2.65-1.33.15-.34.27-.7.34-1.11.05-.19.1-.38.15-.56.33-.42.62-.89.82-1.43.72-1.98,1.98-3.51,3.32-5.09.75-.83,1.5-1.66,2.25-2.49.75-.65,1.2-1.07,1.35-1.28.14-.05.28-.1.45-.15,1.18-.37,2.38-.68,3.59-.94,1.34-.22,3.06-.54,4.47-.17.38.21.78.4,1.21.57.79.47,1.58.92,2.38,1.38,2.19,2.04,4.35,4.13,6.7,5.97.11.32.22.65.32.99.19.7.48,1.29.85,1.77-1.96,2.72-4.21,5.18-6.78,7.29Z"/>
  <path class="cls-12" d="M110.7,322.06c-.03.07-.06.14-.1.21-.02-.23-.17-.45-.48-.45-.64,0-.64,1,0,1,.11,0,.19-.04.26-.08-.44.95-.85,1.91-1.23,2.88,0-.02,0-.03,0-.05l-.03-1.57c-.02-1.05-.05-2.1-.07-3.15-.01-.57-.8-.67-.98-.13-.32.96-.43,1.99-.3,3,.03.22.15.4.35.47,0,.15,0,.29,0,.44.01.63.03,1.26.04,1.89.01.5.07,1.1.68,1.2,0,0,.02,0,.03,0,.18.05.4.02.54-.13.27-.18.48-.48.66-.73.32-.44.61-.9.85-1.39.48-.98.77-2.05.7-3.15-.03-.45-.7-.73-.93-.25Z"/>
  <path class="cls-12" d="M107.12,312.29c-.68.26-1.36-.4-1.91-.75-.84-.54-1.76-.94-2.78-.89-1.16.06-1.62,1.19-1.38,2.04-.17.08-.34.19-.5.33-.49.45-.78,1.15-1.09,1.73-.33.62-.64,1.25-.93,1.89-.45.99-.86,1.98-1.18,2.99-.12.22-.23.44-.33.66-1.05,2.39-1.25,5.17.14,7.47,1,1.65,3.59.15,2.59-1.51-.19-.31-.31-.64-.41-.97.09-.08.18-.16.25-.26,1.38-2.05,2.75-4.1,4.13-6.16.96-1.43,1.96-3.01,3.65-3.54.18-.03.36-.07.54-.14,1.82-.69,1.11-3.2-.8-2.89Z"/>
  <path class="cls-12" d="M148.85,321.24c-.23-.64-.5-1.29-1.01-1.77-.59-.56-1.31-.71-2.09-.71-.88,0-1.63-.43-2.09-1.27-.39-.71-1.37-.94-2.05-.54-.66.38-.81,1.06-.65,1.71,0,.05-.02.12-.06.21-.09.2-.21.39-.32.57-.19.32-.39.63-.6.93-.42.6-.9,1.15-1.44,1.68-1.11,1.11-2.34,1.97-3.76,2.66-.73.36-.93,1.39-.54,2.05.43.74,1.32.9,2.05.54,1.1-.54,2.14-1.23,3.1-2.02.37.16.81.16,1.26-.12,2.05-1.25,4.34-1.96,6.74-2.05.9-.03,1.8-.94,1.45-1.9Z"/>
  <path class="cls-12" d="M182.82,306.59c-2.48-1.76-5.46-2.61-8.46-2.25-.53-.31-1.14-.49-1.8-.51-1.35-.03-2.79.32-4.11.54-1.42.24-2.84.52-4.25.84-1.61.37-1.26,2.53.06,2.88,1.06,1.43,2.97,2.22,4.39,3.24,1.9,1.36,3.73,2.81,5.88,3.77.74.33,1.61.21,2.05-.54.23-.39.25-.96.06-1.41.25-.04.51-.1.77-.23,1.46-.71,2.82-1.78,4.19-2.66.62-.4,1.45-.76,1.83-1.42.47-.8.09-1.76-.61-2.25Z"/>
  <path class="cls-9" d="M139.25,316.51c-5.89,1.18-11.95.99-17.76-.52-.42-.11-.8-.04-1.11.14-.69-.24-1.37-.28-2.14-.23-1.03.07-1.85-.19-2.82-.52-2.12-.73-4.25-1.46-6.37-2.19-.77-.27-1.63.3-1.85,1.05-.05.17-.06.34-.05.49-.83.41-1.35,1.28-1.85,2.1-.65,1.07-1.47,2.3-1.75,3.52,0,.04,0,.07-.01.11-.12.06-.25.12-.36.19-1.23.8-1.99,2.43-2.72,3.65-.76,1.27-1.89,2.77-1.88,4.31.01,1.57,1.21,2.57,2.71,2.6.01,0,.02,0,.03,0,.11.21.25.4.44.54,1.42,1,3.08,1.49,4.81,1.48.32,0,.58-.09.79-.23.66.07,1.32.06,1.98,0,.21.13.46.21.77.21h3.16c.64,0,1.42.1,2.08-.07,1.54,1.73,6.64.35,8.23-.25,1.53-.58,2.89-1.44,4.43-1.95,1.12-.37,1.74-1.08,2.16-1.98.2-.12.39-.23.57-.34,1.92-1.19,3.48-2.78,5.05-4.39,1.67-1.71,3.4-3.38,4.91-5.24.95-1.16.07-2.81-1.46-2.51Z"/>
  <path class="cls-1" d="M157.66,328.18c1.25-3.51,4.13-6.25,7.37-8.08s6.86-2.87,10.45-3.88"/>
  <path class="cls-7" d="M179.71,251.49c-.94-1.68-3.54-.17-2.59,1.51,3.01,5.37,4.26,11.52,3.68,17.64-.18,1.92,2.82,1.91,3,0,.63-6.63-.84-13.35-4.09-19.16Z"/>
  <path class="cls-16" d="M322.13,269.37c-.02-.11-.04-.23-.05-.35,0-4.09.11-8.18.23-12.27.09-3.18-2.3-4.78-4.77-4.82-.64-1-1.37-1.93-2.24-2.77-3.29-3.14-8.21-.73-8.54,3.54-.67,8.85-.44,17.63.69,26.43.39,3.03,2.91,4.62,5.33,4.74.38,3.98.95,7.95,1.8,11.91,1.19,5.54,9.94,4.27,9.82-1.33-.17-8.41-.94-16.77-2.26-25.07Z"/>
  <path class="cls-6" d="M323.84,228.64c-.26-5.31-8.84-7.18-9.82-1.33-.54,3.19-1.31,6.35-2.11,9.5-.21-.06-.42-.11-.63-.14-.21-2.88-.65-5.73-1.42-8.54-2.76-9.97-7.11-19.54-12.46-28.38-3.33-5.5-11.98-.48-8.63,5.05,4.93,8.15,8.91,16.79,11.45,25.99,2.53,9.12.79,19.25-.05,28.54-.44,4.85,4.88,5.85,8,3.61,1.46,3.9,2.92,7.8,4.39,11.7,2.04,5.44,9.17,4.3,9.82-1.33,1.72-14.85,2.21-29.75,1.47-44.68Z"/>
  <path class="cls-4" d="M324.98,273.37c-1.72-4.44-3.43-8.89-5.15-13.33-1.22-4.44-1.98-8.99-2.27-13.62-.03-1.88-.08-3.77-.14-5.66-.15-4.37-4.69-5.78-7.6-4.19-.06-.42-.12-.85-.18-1.27-.86-6.35-10.5-3.64-9.64,2.66,1.42,10.45,3.48,20.77,6.21,30.96.35,1.3,1.2,2.25,2.25,2.84.94,3.54,2.66,6.8,5.08,9.89,2.56,3.27,6.4,1.45,7.74-1.59.5-.29.95-.65,1.3-1.1,2-1.02,3.38-3.11,2.42-5.59Z"/>
  <path class="cls-4" d="M332.12,340.35c-.8-14.06-1.86-28.1-3.18-42.12-.35-3.77-4.99-5.95-7.79-4.46-.04-.19-.08-.37-.12-.56-1.3-6.3-10.95-3.63-9.64,2.66,1.97,9.49,4.15,18.94,6.54,28.33.51,3.49,1.36,6.93,2.71,10.31.31.76.73,1.39,1.23,1.89.08,1.32.17,2.64.24,3.96.36,6.4,10.37,6.44,10,0Z"/>
  <path class="cls-15" d="M340.33,306.67c-1.36-7.62-2.82-15.15-5.78-22.33-.98-2.37-3.11-3.52-5.14-3.48-.05-1.25-.1-2.49-.14-3.74,1.75-.36,3.22-1.38,4.07-3.12,2.42-4.94-1.96-12.29-4.77-16.21-2.81-3.92-9.18-2.71-9.32,2.52-.02.82-.04,1.66-.07,2.49-1.41-.45-3-.32-4.27.39-1.71-1.3-4.22-1.43-6-.4-.91-1.49-1.52-3.15-2.51-4.61-2.68-3.94-6.87-5.76-11.5-4.71-1.61.36-3.14,1.88-3.49,3.49-1.18,5.34-3.19,13.27,3.53,15.72.86.31,1.67.47,2.45.51,1.32,7.6,5.22,14.67,11.1,19.89.87.77,1.91,1.17,2.97,1.26.41,1.34.84,2.68,1.31,4.01.58,1.67,1.81,2.72,3.21,3.2.17.42.33.83.52,1.25,1.26,2.77,3.98,3.02,6.16,1.91.73,2.3,1.58,4.56,2.61,6.74,1.5,3.19,5.64,2.99,7.86.91,3.26,1.67,8.04-.94,7.19-5.69Z"/>
  <path class="cls-15" d="M333.02,244.08c-2.61-8.12-6.11-15.95-10.72-23.13-2-3.12-4.18-6.15-6.63-8.94-1.16-1.32-2.41-2.54-3.53-3.83-.95-2.42-2.05-4.65-3.6-6.79-1.99-2.75-5.42-2.85-7.51-1.2-.05-.08-.1-.15-.15-.23-.76-1.2-2.23-3.08-3.4-4.98l-1.95-5.82c-1.77-5.29-9.66-4.45-9.82,1.33,0,.07,0,.15,0,.22-.54.54-1,1.22-1.33,2.04-.68,1.71-.82,2.89-1.04,4.71-.47,3.88,3.04,5.37,6.04,4.53.22.22.44.45.67.67.17.16.36.3.55.43.85,1.28,1.73,2.52,2.6,3.71.37,3.35,2.67,7,4.6,9.69,2.8,9.99,10.06,18.9,15.62,27.36,1.24,1.89,3.81,2.58,5.94,2.09.86,1.36,1.71,2.72,2.57,4.08,2.25,3.58,7.95,2.54,9.23-.73,1.55-1.22,2.52-3.19,1.87-5.21Z"/>
  <path class="cls-8" d="M353.35,370.52c-2.22-2.43-4.25-5.01-6.09-7.74-.08-.13-.19-.22-.29-.29,0-.08.01-.16,0-.25-.11-1.56-.74-2.98-.9-4.48-.04-.4-.12-.78-.23-1.14.13-.7.32-1.42.39-1.92.16-1.3.08-2.66.26-3.95.34-2.37,1.24-4.55,1.5-6.97,0,0,0-.02,0-.03.11-.31.21-.61.32-.92.68-1.91,1.55-3.82,1.67-5.87.1-1.73.63-3.51.49-5.25.93-1.07,1.42-2.56.99-4.34-.74-3.08-.3-6.82-.19-10.01.03-.72-.08-1.36-.27-1.91.12-1.07.24-2.15.18-3.23-.14-2.36-.76-4.57-.75-6.98,0-1.22-.35-2.21-.93-2.96,0-.06.03-.11.03-.18.16-1.51-.44-3.29-.49-4.84-.06-1.85-.33-3.41-.92-5.02.12-.92.13-1.83-.1-2.79-.38-1.59-1.03-2.34-.4-3.95.68-1.73.35-3.17-.51-4.21,0-.16.02-.31,0-.48,0-.04,0-.07,0-.11-.03-.4-.09-.78-.18-1.13.05-4.72-.08-9.37-.89-14.1.77-1.66.85-3.66.71-5.56-.26-3.5-.85-7.01-1.31-10.49-.13-1.04-.48-2.02-1.02-2.84.1-.66.06-1.35-.17-2.01-.91-2.59-2.3-4.87-3.5-7.32-1.29-2.65-2.57-4.34-5.05-5.99-.57-.38-1.21-.59-1.86-.67-.38-.66-.9-1.24-1.59-1.64-.38-.81-.79-1.61-1.29-2.35-1.74-2.57-3.6-5.04-5.19-7.71-.5-.83-1.11-1.42-1.79-1.81-2.57-3.8-5.46-7.46-8.45-10.87-.34-.38-.69-.69-1.06-.93-.81-1.16-1.72-2.21-2.74-3.19-1.82-1.98-3.86-3.64-6.61-4.67-.42-.16-.83-.22-1.23-.25-.08-.03-.16-.07-.23-.1-.2-.09-1.03-.64-.98-.54-.37-.38-.72-.86-1.09-1.24-.3-.3-.48-.46-.59-.55,0-.06-.04-.16-.13-.34-1.6-3.4-4.18-5.98-6.65-8.76-.84-.94-1.78-1.42-2.72-1.56-.21-.49-.65-.74-1.21-.95-.64-.24-1.4-.57-1.99-.02-.41.39-.45,1.04-.77,1.51-.32.46-.71.87-.96,1.38-.26.53-.38,1.09-.42,1.67-.08.22-.14.44-.19.67-.02,0-.04-.01-.06-.01-.81,0-1.11.79-.9,1.38-.58.82-1.16,1.65-1.73,2.47-.43.62-.8,1.22-.96,1.93-.68.47-1.24,1.08-1.59,1.78-.4.47-.79.96-1.15,1.47-.54.76.22,1.49.96,1.44.16.46.39.93.75,1.4,3.03,4.01,5.36,8.35,7.67,12.77.04.2.09.4.16.61,1.45,4.25,4.14,7.41,6.69,10.86.07.22.16.43.27.64.61,1.21,1.23,2.51,2.04,3.61.09.12.19.24.28.36-.05,1.32.09,2.47.4,3.49-.17.7-.2,1.47-.04,2.3.77,3.88-1.66,6.9-3.13,10.3-1.11,2.57-2.63,4.88-3.73,7.43-.19.15-.39.31-.57.5-.74.75-1.4,1.54-1.99,2.36-.79.6-1.33,1.43-1.63,2.36-.65.58-1.14,1.37-1.31,2.44-.35,2.27-1,4.19-1.41,6.41-.23,1.23-.29,2.46-.3,3.7,0,.46-.22,1.81-.21,2.43-.84,1.67-.62,3.8.39,5.36.05.67.25,1.38.63,2.09,2.61,4.84,5.45,9.54,8.28,14.25,1.47,2.44,2.71,4.92,4.65,6.7-.27.55-.45,1.17-.51,1.87-.87,9.76-.26,21.26,5.46,29.64-.04.15-.05.32,0,.51.61,2.12,1.67,4.38,1.27,6.63-.09.53.14,1.08.7,1.23.55.15,1.05-.19,1.23-.7.33-.94.25-1.93.22-2.91.34-.16.56-.51.59-.91.03-.33.05-.65.08-.98.48.02.97-.01,1.45-.11.17.29.36.58.59.87,1.42,1.75,2.84,3.49,4.26,5.24,1.31,2.74,3.06,5.16,4.38,7.92,1.58,3.3,3.35,6.41,5.21,9.58.05.08.1.14.15.22-.22.47-.04,1,.39,1.28.34.22.55.64.71,1.03.25.61.46,1.25.68,1.88.43,1.2.82,2.4,1.92,3.16.16.11.32.15.48.15.08.17.18.34.31.47.41.41.96.38,1.49.29.8-.15,1.62-.38,2.35-.73,1.53-.72,1.77-2.84,2.05-4.32.02-.13.05-.25.08-.38.29.1.58.17.88.22.16.15.37.25.64.25,0,0,0,0,0,0,1.06,1.01,2.04,2.1,2.97,3.23.64.77,1.46,1.2,2.34,1.38.84,1.38,2.35,2.28,3.98,2.32.01,0,.02,0,.04,0,0,0,.01,0,.02,0,.43.21.79.5,1.24.66.81.29,1.69.31,2.49.66.89.38,1.66,1.06,2.69.99.16-.01.31-.07.44-.14.08.09.16.19.25.28.87.95,2.28-.47,1.41-1.41Z"/>
  <path class="cls-8" d="M272.2,163.25c-.16-.57-.69-.78-1.23-.7-.17.02-.69-.33-.96-.47-.17-.17-.35-.32-.52-.44-.93-.6-2-1-2.64-1.96-.05-.07-.11-.14-.16-.21-.11-.14-.24-.21-.37-.26-.47-.53-1-.98-1.66-1.29-1.38-.66-2.99-.73-4.28-1.57-.33-.2-.65-.17-.9-.04-.58-.7-1.35-1.24-2.33-1.49-1.57-.4-3.14-.8-4.71-1.2-.63-.16-1.23-.18-1.81-.1-.35-.13-.7-.27-1.05-.4-.54-.49-1.21-.89-2.05-1.13-1.6-.45-3.17-.77-4.77-.98-.59-.34-1.25-.57-1.98-.64-7.39-.7-14.44.25-21.52,1.86-.4,0-.8.03-1.23.14-1.33.32-2.64.71-3.93,1.13-.16.04-.31.08-.47.12-.36.1-.69.23-.99.38-4.46,1.63-8.63,3.89-12.45,6.82-.74.57-1.26,1.25-1.59,1.97-1.44.39-2.67,1.47-3.12,3.41.16-.71-.52.55-.7.81-.48.71-.76,1.47-1.19,2.21-1.07,1.83-2.35,3.3-3.21,5.28-1.58,3.67-1.97,7.59-1.92,11.55,0,.57.1,1.09.25,1.56-.04.03-.09.05-.13.09-.27.31-.37.63-.29,1.04.04.21.16.38.31.52,0,.13.04.27.11.42.27.52.54,1.05.81,1.57.3,1.85.85,3.62,1.65,5.34.54,1.16,2.27.15,1.73-1.01-.01-.03-.02-.06-.03-.08.3-.1.55-.32.65-.66.33-1.2,1.48-1.94,1.91-3.11.04-.11.09-.46.15-.7.06.13.23.27.31.39.47.73.89,1.5,1.32,2.26,1.28,2.25,2.19,5.75,5.1,6.32,2.79.55,5.88-.71,8.26-2.05,1.41-.79,2.96-1.11,4.46-1.71.59-.23,1.16-.51,1.68-.87.12-.09.24-.18.35-.27.05,0,.1,0,.15-.01.52-.16.96-.38,1.36-.68.42-.23.84-.46,1.25-.71.02.01.03.04.05.05.08.03.16.07.24.1.18.05.35.05.53,0,.09-.02.18-.05.27-.08.17-.06.33-.13.49-.21.08-.04.15-.09.22-.14.04-.02.08-.05.12-.07.01,0,.03-.02.04-.03.03-.03.07-.05.1-.08.06-.05.12-.1.18-.15.1-.09.17-.2.21-.32.06-.12.09-.25.09-.39,0-.05-.02-.08-.03-.13.21-.01.42-.1.6-.31.54-.64,1.07-1.3,1.57-1.97.03-.04.06-.09.1-.13.06.43.34.8.88.84-.07,1.04-.2,2.07-.43,3.1-.08.37.04.66.25.88-.01.08-.02.15-.03.23-.25.51-.39,1.06-.53,1.61-.09.35-.18.7-.27,1.04-.68,1.61-1.66,3.07-2.95,4.31-.91.88.43,2.24,1.36,1.45.21.11.46.14.73.1.41-.07.8-.2,1.19-.35.15.1.33.18.54.2.41.05.79-.14,1.16-.3.26-.11.51-.24.77-.36.02-.01.11-.05.11-.05.03-.01.07-.03.1-.04.14-.05.27-.1.42-.14.07-.02.14-.04.21-.05.02,0,.06,0,.09,0,.13,0,.25,0,.38,0,.27.02.54-.13.73-.34.55,0,1.04-.2,1.54-.49.55.1,1.09.01,1.64-.27.52-.27.93-.63,1.51-.79.51-.14,1.05-.17,1.56-.32.87-.26,1.71-.67,2.46-1.18.42-.29.83-.69,1.26-1.03.24.08.5.07.77-.08.28-.16.51-.35.71-.57.72-.53,1.54-.91,2.27-1.43.94-.65,1.76-1.43,2.55-2.25.77-.8,1.52-1.63,2.34-2.38.83-.76,1.81-1.33,2.56-2.16.25-.28.29-.6.23-.88.27-.21.54-.46.79-.76,2.06-2.54,4.06-5.13,5.86-7.86.19-.28.37-.6.56-.95.19-.13.37-.26.54-.41,2.54-2.2,4.27-6.18,6.03-9,.09-.14.14-.28.21-.42,1.54-.9,3.1-1.85,4.5-2.96.23-.18.37-.38.45-.58.26-.13.51-.28.73-.45.12-.1.21-.21.28-.32.27.05.55.06.87,0,.53-.08.83-.76.7-1.23Z"/>
  <path d="M219.35,229.04c-1.06-1.17-2.65-1.81-4.16-2.17-.75-.17-1.34.49-1.24,1.14-.31.17-.52.48-.55.87-.03.37-.04.75-.04,1.13-.14.22-.25.46-.29.72,0,0,0,0-.01.01-.62.69-.79,1.65-.33,2.47.35.63,1.04,1.01,1.73,1.13.8.14,1.57.04,2.36-.14.85-.19,1.7-.47,2.49-.83,1.89-.87,1.12-3.13.04-4.33Z"/>
  <path class="cls-5" d="M176.27,316.84c-.41-.32-.42-.97-.79-1.35-.28-.3-.64-.45-1.02-.52-2.06-1.67-3.51-3.89-6.3-4.26-1.1-.95-2.3-1.77-2.88-2.28-1.04-.93-1.87-2.59-3.43-2.63-.76-.02-1.35.39-1.97.79-.9.58-1.8,1.14-2.71,1.69-4.1,2.47-8.39,4.63-12.81,6.47-.24.1-.43.29-.56.51-.8-.19-1.66.9-.94,1.69,1.49,1.65,3.45,2.57,5.34,3.63.87.75,1.77,1.45,2.72,2.08.21.14.43.29.65.44.38.39.76.79,1.15,1.19.8.83,1.91,1.89,3.13,2.03-.14.4-.06.85.42,1.12.25.14.5.28.75.42.02.01.04,0,.06.02.1.05.2.11.3.16.47.25,1.09.12,1.37-.36,1.59-2.77,4.33-4.47,7.01-6.05,2.71-1.6,6.25-4.45,9.54-3.12.91.37,1.75-1.07.97-1.67Z"/>
  <path class="cls-2" d="M268.76,208.9c3.75-1.84,6.36-5.36,8.8-8.76,4.11-5.7,8.23-11.47,10.95-17.95s3.94-13.82,2.03-20.58c-.28-1-.73-2.09-1.7-2.46-.52-.2-1.1-.15-1.65-.08-2.37.3-4.7.86-6.95,1.65-1.17.41-2.32.88-3.44,1.4-.83.39-2.2,1.5-3.11,1.48-1.79-.04-4.54-2.49-6-3.44-2.02-1.32-4.05-2.66-6.26-3.64-3.15-1.4-6.58-2.05-9.83-3.18-2.08-.72-4.1-1.65-6.21-2.27-3.62-1.07-7.44-1.23-11.21-1.16-12.78.23-26.16,3.38-35.4,12.2-3.96,3.78-7.02,8.5-8.86,13.66-2.58,7.25-2.5,15.94,2.22,22.03.81-1.69,1.61-3.39,2.42-5.08.74-1.56,1.5-3.16,1.68-4.88.24-2.21-.78-4.68-.11-6.82.51-1.63,1.27-3.43,2.01-4.98,1.83-3.84,4.85-6.97,7.79-9.99"/>
  <path class="cls-2" d="M195.94,191.28l2.88,5.88c.51,1.05,1.08,2.16,2.1,2.75.66.38,1.44.5,2.21.49,1.55-.01,3.05-.49,4.52-1,3.9-1.35,7.72-2.94,11.44-4.75,1.06-.52,2.12-1.06,3.06-1.78,1.59-1.22,2.75-2.9,3.89-4.55-.28,4.01-1.34,7.97-3.11,11.59-.61,1.26-1.33,2.49-2.38,3.42,3.78.74,7.64-.53,11.29-1.77,2.37-.81,4.75-1.62,6.95-2.8,2.58-1.38,4.9-3.25,6.78-5.48,1.44-1.7,3.69-2.49,5.11-4.21.49-.59.95-1.22,1.4-1.84.51-.69,1.01-1.38,1.52-2.08,1.76-2.4,3.52-4.8,5.27-7.21,1.03-1.41,2.07-2.84,2.83-4.42,2.19-4.6,7.07-7.21,11.25-10.12"/>
  <path class="cls-2" d="M266.37,192.6c1.4-4.65,5.17-8.15,7.58-12.37,1.47-2.59,2.43-5.44,3.83-8.07s3.37-5.12,6.13-6.24"/>
  <path class="cls-2" d="M187.3,187.27c-1.21-4.99-1.22-10.19-1.22-15.33,0-.85,0-1.71.14-2.55.12-.75.35-1.48.48-2.22.17-.96.18-1.93.28-2.9.17-1.59.57-3.15.98-4.7.35-1.34.7-2.68,1.2-3.97.4-1.02.89-2,1.38-2.98.52-1.04,1.04-2.09,1.57-3.13.64-1.28,1.47-2.71,2.88-2.98.88-.17,1.77.18,2.57.57,3.95,1.91,7.22,4.96,10.42,7.97"/>
  <path class="cls-2" d="M200.8,190.63c.33-6.27,4.11-11.8,8.18-16.59,5.12-6.02,10.91-11.47,17.24-16.2"/>
  <path class="cls-2" d="M239.12,157.4c-6.05,1.67-10.85,6.15-15.38,10.48-3.75,3.59-7.52,7.21-10.49,11.46-1.56,2.23-2.9,4.63-3.97,7.13"/>
  <path class="cls-2" d="M214.64,192.77l4.37-8.1c1.81-3.35,3.66-6.76,6.44-9.36,3.1-2.91,7.4-4.89,9.01-8.83"/>
  <path class="cls-2" d="M250.96,160.74c-1.55.32-2.89,1.3-4.1,2.32-5.36,4.51-9.56,10.39-12.08,16.93"/>
  <path class="cls-2" d="M234.28,193c2.77-8.24,7.23-15.91,13.03-22.4"/>
  <path class="cls-2" d="M261.95,163.98c-7.33,6.53-12.03,15.54-15.32,24.79"/>
  <path class="cls-2" d="M279.41,198.68c.93.36,1.27,1.48,1.9,2.26.61.77,1.54,1.23,2.18,1.98.87,1.03,1.09,2.45,1.62,3.69.57,1.35,1.52,2.5,2.23,3.79.47.85.84,1.76,1.22,2.66.66,1.55,1.38,3.07,2.16,4.56.86,1.65,1.8,3.27,2.95,4.73,1.04,1.32,2.29,2.56,2.77,4.17.31,1.03,2.07,2.76,2.82,3.61,1.19,1.36,1.32,3.73,1.82,5.42.71,2.42,1.34,4.86,1.88,7.32,1.08,4.92,1.8,9.92,2.15,14.94.03.09.12-.1.02-.1s-.13.12-.14.22c-.34,3.79-.53,7.59-.55,11.4-.01,2.25.03,4.51.46,6.72.38,1.98,1.06,3.89,1.73,5.78,1.8,5.07,3.65,10.22,6.87,14.53"/>
  <path class="cls-2" d="M298.36,230.62l.29,4.75c.05.8.1,1.61-.01,2.4-.16,1.17-.67,2.26-1.16,3.33-.09-.12-.19-.24-.28-.36-1.66,3.97-3.33,7.96-5.58,11.63-2.57,2.06-4.51,4.89-5.5,8.03-.25.78-.44,1.61-.26,2.41.07.03.07-.12,0-.12s-.12.08-.15.14c-1.09,2.5-1.58,5.25-1.44,7.97.06,1.25.05,2.66.05,3.91"/>
  <path class="cls-2" d="M297.82,215.74c-1.14-5.11-3.51-9.84-5.86-14.52-.99-1.97-1.99-3.97-3.38-5.68-1.15-1.43-2.55-2.63-3.93-3.83"/>
  <path class="cls-2" d="M306.95,231.23c-.16-2.49-1.24-4.84-1.61-7.31-.21-1.39-.19-2.81-.38-4.2-.2-1.43-.61-2.81-1.05-4.19-1.83-5.76-4.06-11.4-6.65-16.86-1.2-2.54-2.75-5.27-5.42-6.12"/>
  <path class="cls-2" d="M288.93,183.27c2.08-.24,3.97,1.17,5.48,2.62,1.56,1.49,3,3.11,4.31,4.83s2.34,4.04,3.8,5.7c1.03,1.18,3.01.84,4.41,1.47,2.02.9,3.68,2.48,5.16,4.08,2.72,2.94,5.21,6.09,7.68,9.23,1.65,2.1,3.31,4.19,4.96,6.29,1.62,2.05,3.23,4.11,4.73,6.25,2.58,3.69,4.8,7.62,6.73,11.68.98,2.06,1.9,4.17,2.4,6.4,1.09,4.77.31,10.03,2.55,14.38,1.51,2.92,1.05,6.31.49,9.55-.19,1.12-.52,2.22-.73,3.34-.29,1.51-.37,3.04-.45,4.57-.13,2.33-.25,4.67-.38,7-.06,1.17-.13,2.35.06,3.51.09.55.23,1.08.29,1.64.06.58.02,1.16,0,1.74-.16,4.56.67,9.11,1.93,13.49s.85,9.49,1.14,14.24c.11.02.06-.2-.05-.18s-.14.16-.16.28c-.65,5.37-1.05,10.77-1.2,16.18"/>
  <path class="cls-2" d="M324.88,224.07c3.2,3.4,3.47,8.52,5.07,12.9.76,2.08,1.84,4.02,2.59,6.1.63,1.75,1.03,3.58,1.42,5.4.31,1.43.62,2.87.93,4.3"/>
  <path class="cls-2" d="M315.9,214.22l4.31,15.75c.46,1.67.92,3.35,1.64,4.93.84,1.85,2.03,3.56,2.56,5.52.27,1,.35,2.03.47,3.05.41,3.56,1.2,7.07,2.26,10.49.75,2.43,1.63,4.82,2.12,7.32.35,1.79.49,3.62.64,5.44.89,10.64,2.27,21.23,4.15,31.74.63,3.55-.38,7.15.65,10.61.36,1.21.85,2.39,1.08,3.64.25,1.34.21,2.73.17,4.09"/>
  <path class="cls-2" d="M315.51,282.18c1.4,2.83,1.96,5.99,2.3,9.12.87,8.12.15,16.89-4.69,23.47-1.37,1.87-3.1,3.62-3.59,5.88-.37,1.69-.01,3.54-.78,5.08,1.03-8.76-.41-17.79-4.1-25.8-1.63-3.54-3.7-6.88-5.11-10.52-.65-1.66-1.15-3.38-1.66-5.09-3.17-10.71-6.37-21.78-5.03-32.87"/>
  <path class="cls-2" d="M318.17,337.91c3.34,4.45,6.08,9.36,8.11,14.54,1.85,4.73,3.09,10.16,1.03,14.8-3.07-5.76-6.14-11.52-9.22-17.28-1.99-3.73-3.99-7.48-6.61-10.8-1.16-1.48-2.44-2.86-3.83-4.13-.92,3.52-1.84,7.04-2.76,10.56.48-3.44.15-6.99-.95-10.28-1.16-3.47-3.15-6.61-4.31-10.07-.89-2.66-1.28-5.47-1.66-8.25-.36-2.6-.72-5.22-.69-7.84.07-6.02,2.18-11.93,1.78-17.94"/>
  <path class="cls-2" d="M331.21,350.9c-.37-3.11-1.54-6.13-3.37-8.68-.69-.96-1.47-1.85-2.06-2.88-.42-.73-.74-1.51-1.05-2.29-1.03-2.54-2.06-5.08-3.09-7.61-2.44-6.02-4.92-12.19-5.25-18.68"/>
  <path class="cls-2" d="M315.01,277.23l-.85-10.78c-.03-.43-.07-.85-.1-1.28-.13-1.61-.25-3.22-.41-4.83-.46-4.6-1.21-9.17-1.67-13.78"/>
  <path class="cls-2" d="M328,367.41c1.29.08,2.63-.04,3.78-.63s2.1-1.68,2.26-2.96c.06-.47.01-.96.14-1.42.15-.55.54-1,.81-1.51.38-.7.54-1.5.69-2.29.6-3.18,1.14-6.41.94-9.65-.08-1.31-.28-2.62-.68-3.86-.18-.56-.4-1.11-.52-1.69-.11-.52-.14-1.05-.19-1.58-.32-3.71-1.36-7.32-2.4-10.9-1.62-5.59-3.67-11.01-5.46-16.55-.35-1.08-.69-2.16-.85-3.28-.16-1.08-.14-2.18-.24-3.27-.09-1.01-.29-2-.48-3-.45-2.36-.9-4.78-.52-7.15.18-1.09-.49-2.1-.66-3.19-.23-1.43-.21-2.88-.41-4.31-.18-1.28-.54-2.53-.67-3.82-.11-1.07-.06-2.15-.05-3.22,0-1.53-.08-3.07-.19-4.6-.35-4.98-.94-9.97-2.28-14.78-.8-2.87-.65-5.71-1.2-8.64-.75-3.96-.73-8.19-2.62-11.75-1.31-2.48-1.15-5.34-2.5-7.8-.63-1.15-1.38-2.26-1.66-3.54"/>
  <path class="cls-2" d="M335.47,362.29c1.59,2.63,4.08,4.56,6.52,6.43.4.3.8.61,1.25.81.91.4,1.94.34,2.89.64.78.25,1.47.73,2.22,1.06,1.95.86,4.18.66,6.3.44-1.87-1.36-3.38-3.15-4.85-4.93-.77-.93-1.54-1.87-2.02-2.98-.3-.7-.48-1.44-.66-2.18-.48-1.98-.96-3.98-1.01-6.02-.04-2.13.39-4.23.83-6.31.48-2.3.96-4.61,1.76-6.83.54-1.5,1.22-2.96,1.47-4.53.27-1.69.03-3.45.42-5.12.44-1.9,1.69-3.74,1.23-5.63-.58-2.44-.33-4.71-.42-7.21-.07-2-.04-4-.11-5.99-.07-2.11-.24-4.22-.52-6.32-.19-1.4-.42-2.8-.84-4.16-.16-.5-.34-1-.43-1.52-.13-.73-.08-1.48-.07-2.22.05-2.5-.28-5.01-.99-7.41-.5-1.69-.6-3.45-.83-5.19-.35-2.57-.14-5.18-.18-7.77-.05-2.76-.39-5.5-.72-8.23-.28-2.33-.55-4.72-.1-7.02.84-4.29.15-8.41-.52-12.74-.61-3.97-2.18-7.72-3.73-11.42-.87-2.07-1.74-4.15-3.08-5.95s-3.18-3.31-5.37-3.79"/>
  <path class="cls-2" d="M268.68,269.31c-3.58,7.97-8.13,15.51-13.52,22.39-.4-.04-.78-.28-.98-.63-.33.92-1.09,1.6-1.83,2.23-5.82,5-12.06,9.85-19.41,12.06-4.1,1.23-8.45,1.62-12.43,3.21-2.08.84-4.02,1.99-6.15,2.68-2.29.74-4.73.91-7.01,1.67-6.97,2.35-11.4,9.86-18.53,11.67"/>
  <path class="cls-2" d="M195.24,236.86c1.3.87,3.09.93,4.44.17,1.53-.86,2.36-2.56,3.1-4.15,1.3-2.82,2.6-5.69,4.61-8.07s4.85-4.23,7.95-4.32c2.88-.09,5.59,1.32,7.99,2.92,2.69,1.79,5.28,4,6.57,6.96.2.47.37.97.31,1.47-.08.65-.54,1.19-.99,1.67-2.49,2.61-5.51,4.71-8.82,6.14-.95.41-1.95.77-2.98.73-1.02-.03-1.99-.44-2.93-.85-4.01-1.76-7.97-3.65-11.86-5.67"/>
  <path class="cls-2" d="M212.68,231.01c-.08.64-.15,1.33.15,1.9.2.38.54.67.91.9.89.56,1.97.81,3.02.69.93-.1,1.81-.47,2.63-.92.9-.49,1.77-1.1,2.29-1.98.76-1.29.61-3-.19-4.27-1.06-1.7-3.95-3.49-5.95-2.42s-2.63,4.17-2.86,6.09Z"/>
  <path class="cls-2" d="M198.81,215.19c2.1.08,3.7-1.75,5.58-2.68,1.2-.6,2.55-.82,3.87-1.04,1.84-.3,3.67-.59,5.51-.89,1.33-.21,2.69-.42,4.01-.19,1.05.19,2.02.65,2.98,1.1,5.09,2.4,10.59,5.23,12.77,10.41"/>
  <path class="cls-2" d="M185.34,296.58c-.01-6.41,3.41-12.73,8.78-16.23,3.14-2.05,6.8-3.14,10.43-4.12"/>
  <path class="cls-2" d="M137.96,269.11c2.23,1.22,3.95,3.17,5.62,5.09.59.68,1.2,1.38,1.5,2.23.28.77.28,1.61.29,2.42.01,1.96-.06,4.14-1.44,5.53-.61.62-1.4,1-2.15,1.43-.99.57-1.92,1.24-2.92,1.79-3.25,1.8-7.06,2.31-10.77,2.57-2.45-2.8-2.64-7.06-1.37-10.55s3.8-6.38,6.39-9.05c3.1-3.19,6.73-6.36,11.16-6.74,1.51-.13,3.11.11,4.31,1.03,2.44,1.88,2.23,5.6,1.36,8.55-.64,2.19-1.51,4.31-2.38,6.42-.52,1.25-1.16,2.64-2.44,3.09"/>
  <path class="cls-2" d="M95.63,268.26c1.39.04,2.65-.76,3.73-1.63,2.57-2.06,4.7-4.68,6.21-7.61.36-.71.69-1.45.73-2.24"/>
  <path class="cls-2" d="M186.02,186.34c-3.8,3.55-7.98,6.7-12.45,9.38-1.25.75-2.53,1.47-3.62,2.44-1.79,1.6-2.97,3.82-4.86,5.31-4.32,3.39-10.98,1.98-15.5,5.11-4.96,3.43-5.57,11.03-10.52,14.47-1.94,5.05-7.32,7.81-10.65,12.07-.68.87-1.28,1.8-2.01,2.63-.68.77-1.48,1.43-2.28,2.07-2.09,1.66-4.27,3.21-6.45,4.75-2.53,1.79-5.07,3.58-7.6,5.37-2.15,1.52-4.3,3.04-6.61,4.31-2.36,1.3-4.93,2.38-6.79,4.33-1.29,1.36-2.48,3.02-3.51,4.59-.73,1.12-1.46,2.23-2.2,3.35-.85,1.29-1.7,2.59-2.4,3.97-1.94,3.8-2.71,8.06-3.46,12.26-.31,1.75-.62,3.5-.93,5.25-.6,2.34-1.01,4.73-1.23,7.13-.14,1.54-.2,3.13.29,4.61s1.62,2.81,3.13,3.15c2.25.51,4.14,1.76,6.23,2.74,12.27,5.73,25.03,11.58,38.58,11.69,2.42.02,4.85-.15,7.22-.65,3.1-.66,6.06-1.88,8.9-3.28,2.39-1.18,4.72-2.5,7.04-3.81,1.1-.62,2.2-1.25,3.33-1.82,4.3-2.21,9.01-3.78,13.85-3.9,4.84-.11,9.81,1.33,13.43,4.54-.66-.58-7.5,4.78-8.17,5.48-2.66,2.81,1.71,5.07,3.84,6.45,1.6,1.03,3.07,2.25,4.53,3.46,2.63,2.18,5.26,4.36,7.89,6.53"/>
  <path class="cls-2" d="M95.24,308.39c-2.5,3.36-5.02,6.74-6.94,10.47s-3.24,7.85-3.17,12.04c.02,1.56.26,3.16,1.06,4.5.55.92,1.34,1.66,2.17,2.34,3.61,2.94,8.07,4.72,12.63,5.66s9.25,1.08,13.91,1.01"/>
  <path class="cls-2" d="M85.93,336.67c-.38,2.85.03,5.81,1.17,8.45.41.94.9,1.84,1.39,2.74.51.93,1.03,1.87,1.66,2.72.87,1.18,1.94,2.19,3.04,3.15,3.91,3.41,8.42,6.3,13.47,7.5,1.32.31,2.67.51,4.03.68,6.29.78,13,.87,18.59-2.11,3.6-1.92,6.44-4.96,9.31-7.85,5.71-5.76,11.79-11.16,18.19-16.14,1.04-.81,2.2-.99,3.32-1.68.28-.17.55-.34.85-.47.41-.19.85-.31,1.29-.41.54-.13,1.09-.23,1.64-.32"/>
  <path class="cls-2" d="M101.59,310.96c-1.7,2.62-3.41,5.29-4.33,8.28s-.94,6.39.65,9.08c.38.64.84,1.23,1.37,1.75,3.02,2.96,7.67,3.24,11.89,3.36,2.01.05,4.01.11,6.02.16,3.22.09,5.99.23,8.77-1.42s5.25-3.34,7.62-5.65c1.7-1.65,3.37-3.34,5-5.05,1.11-1.16,2.25-2.41,2.67-3.96.14-.52.43-1.23.95-1.1.26.07.41.33.55.56,1.24,2.01,3.67,2.7,5.55,3.92s3.49,2.9,5.26,4.27l3.79,2.95c2.19,1.71,4.39,3.42,6.78,4.84,1.6.95,3.28,1.77,4.84,2.8,1.55,1.02,2.97,2.24,4.49,3.3,2.88,2.02,6.12,3.48,9.33,4.94-.76-2.65-.51-5.58.67-8.07s3.29-4.53,5.82-5.63c1.2-.52,2.62-.82,3.8-.26,1.03.49,1.68,1.56,1.94,2.67s.16,2.27.05,3.4c-.17,1.69-.4,3.39-1.03,4.97s-1.7,3.04-3.2,3.83c-2.61,1.37-5.79.47-8.59-.46"/>
  <path class="cls-2" d="M132.92,328.55c1.26-.58,2.52-1.15,3.79-1.71.51-.22,1.01-.44,1.52-.66.28-.12.56-.25.84-.37,1.22-.53,2.45-1.07,3.71-1.5.75-.26,1.51-.47,2.25-.77.36-.14.71-.3,1.07-.43,1.09-.39,2.3-.47,3.41-.15"/>
  <path class="cls-2" d="M163.32,306.67c.77.81,1.6,1.57,2.48,2.26,2.97,2.34,6.55,4,8.92,6.95"/>
  <path class="cls-2" d="M109.16,314.25c-1.6.6-2.88,1.85-3.93,3.21s-1.92,2.84-3,4.18c-.49.61-1.03,1.18-1.46,1.83-1.06,1.58-1.46,3.49-1.81,5.36"/>
  <path class="cls-2" d="M113.97,329.8l1.91-5.2c.47-1.29.95-2.59,1.69-3.75.84-1.32,2.01-2.41,2.75-3.79"/>
  <path class="cls-2" d="M163.29,208.58c-2.32,3.25-6.04,5.21-9.74,6.71-3.71,1.5-7.59,2.69-10.91,4.92"/>
  <path class="cls-2" d="M297.21,299.37c-6.68-.06-13.09,2.39-19.31,4.81-4.03,1.57-8.07,3.14-12.1,4.71-4.07,1.58-8.23,3.22-11.46,6.16-4.21,3.83-6.88,9.84-12.34,11.44"/>
  <path class="cls-2" d="M283.31,274.22c.73,4.48,3.1,8.5,5.43,12.4,2.91,4.87,5.82,9.75,8.74,14.62"/>
  <path class="cls-2" d="M234.15,304.63c2.27,7.6,5.3,14.98,9.02,21.98"/>
</svg>